<svg width="1767" height="920" viewBox="0 0 1767 920" fill="none" xmlns="http://www.w3.org/2000/svg">
<path fill-rule="evenodd" clip-rule="evenodd" d="M322.055 990.57C309.789 764.703 -56.32 579.258 52.0198 380.747C158.978 184.767 493.892 366.759 703.799 291.099C862.406 233.929 939.066 -11.0967 1107.25 0.390822C1278.75 12.1047 1320 281.522 1480.12 344.124C1685.91 424.583 1965.25 251.766 2129.24 399.959C2278.69 535.015 2256.09 798.378 2195.48 990.57C2138.46 1171.37 1923.98 1244.62 1814.15 1399.09C1718.16 1534.1 1711.89 1718.58 1594.66 1835.59C1461 1968.99 1294.16 2078.33 1107.25 2104.61C910.527 2132.28 708.18 2080.03 533.799 1984.77C357.275 1888.35 158.168 1760.15 116.24 1563.28C73.2479 1361.42 333.247 1196.66 322.055 990.57Z" fill="url(#paint0_linear)" fill-opacity="0.6"/>
<path fill-rule="evenodd" clip-rule="evenodd" d="M290.055 1029.57C277.789 803.703 -88.32 618.258 20.0198 419.747C126.978 223.767 461.892 405.759 671.799 330.099C830.406 272.929 907.066 27.9033 1075.25 39.3909C1246.75 51.1047 1288 320.522 1448.12 383.124C1653.91 463.583 1933.25 290.766 2097.24 438.959C2246.69 574.015 2224.09 837.378 2163.48 1029.57C2106.46 1210.37 1891.98 1283.62 1782.15 1438.09C1686.16 1573.1 1679.89 1757.58 1562.66 1874.59C1429 2007.99 1262.16 2117.33 1075.25 2143.61C878.527 2171.28 676.18 2119.03 501.799 2023.77C325.275 1927.35 126.168 1799.15 84.2396 1602.28C41.2479 1400.42 301.247 1235.66 290.055 1029.57Z" fill="url(#paint1_linear)"/>
<defs>
<linearGradient id="paint0_linear" x1="32" y1="1056" x2="2242" y2="1056" gradientUnits="userSpaceOnUse">
<stop stop-color="#333D61" stop-opacity="0.7"/>
<stop offset="1" stop-color="#333D61"/>
</linearGradient>
<linearGradient id="paint1_linear" x1="-4.61592e-05" y1="1095" x2="2210" y2="1095" gradientUnits="userSpaceOnUse">
<stop stop-color="#5C6B9F" stop-opacity="0.7"/>
<stop offset="1" stop-color="#333D61"/>
</linearGradient>
</defs>
</svg>
