<svg width="623" height="654" viewBox="0 0 623 654" fill="none" xmlns="http://www.w3.org/2000/svg">
<path d="M2.65529 330.485C26.4713 243.426 97.2412 98.1502 126.258 91.3722C169.971 69.532 274.368 38.5534 324.851 77.8163C401.348 137.312 439.032 137.689 465.034 361.739C491.035 585.79 250.991 603.865 226.873 604.994C202.756 606.124 -27.1148 439.31 2.65529 330.485Z" fill="#628395" fill-opacity="0.4"/>
<path d="M67.1784 325.186C95.6863 220.905 180.398 46.8942 215.131 38.7755C267.455 12.6152 392.419 -24.491 452.847 22.5382C544.415 93.8025 589.522 94.2534 620.646 362.622C651.77 630.99 364.436 652.64 335.568 653.993C306.699 655.346 31.5435 455.536 67.1784 325.186Z" fill="#262A53"/>
</svg>
