<svg width="92" height="92" viewBox="0 0 92 92" fill="none" xmlns="http://www.w3.org/2000/svg">
<path d="M51.299 85.3584H41.6829V90.5937H51.299V85.3584Z" stroke="black" stroke-width="2" stroke-miterlimit="10"/>
<path d="M61.5283 85.3584H31.2479L29.2019 81.0926V68.8769H63.5743V81.0926L61.5283 85.3584Z" stroke="black" stroke-width="2" stroke-miterlimit="10"/>
<path d="M70.9403 43.8639C70.9403 31.0665 60.0967 20.7898 46.5932 20.7898C33.0898 20.7898 22.2461 31.0665 22.2461 43.8639C22.2461 52.0077 26.7472 59.182 33.2944 63.2539V69.0709H59.4829V63.2539C66.4392 58.9881 70.9403 51.8138 70.9403 43.8639Z" stroke="black" stroke-width="2" stroke-miterlimit="10"/>
<path d="M29.2019 77.0208H44.1375" stroke="black" stroke-width="2" stroke-miterlimit="10"/>
<path d="M35.3398 42.7005L42.7054 49.6809L57.4364 35.7201" stroke="black" stroke-width="2" stroke-miterlimit="10"/>
<path d="M69.0985 73.3367L74.6227 77.2147L81.3744 70.816L72.1675 59.182C73.8043 56.6613 75.2365 53.7528 75.8503 50.6504L90.9905 48.5175V39.4042L75.8503 37.2713C75.0319 34.1689 73.8043 31.4543 72.1675 28.7397L81.3744 17.1057L74.6227 10.707L62.3468 19.4325C59.687 17.8813 56.6181 16.7179 53.3445 15.9423L51.0939 1.59375H41.4778L39.2273 15.9423C35.9537 16.7179 33.0893 17.8813 30.4296 19.4325L18.1537 10.707L11.6066 17.4935L20.8135 29.1275C19.1767 31.6482 17.7445 34.5567 17.1307 37.6591L1.99048 39.792V48.9053L17.1307 51.0382C17.9491 54.1406 19.1767 56.8552 20.8135 59.5698L11.6066 71.2038L18.3583 77.6025L23.8824 73.7245" stroke="black" stroke-width="2" stroke-miterlimit="10"/>
</svg>
